<svg width="40" height="40" viewBox="0 0 40 40" fill="none" xmlns="http://www.w3.org/2000/svg">
<g clip-path="url(#clip0_44_935)">
<path d="M14.7767 27.1842C14.7767 27.1842 13.2944 28.0731 15.8315 28.3739C18.9052 28.7355 20.4761 28.6837 23.8633 28.0226C23.8633 28.0226 24.7538 28.5984 25.9974 29.0971C18.4043 32.4531 8.81264 28.9027 14.7767 27.1842Z" fill="#5382A1"/>
<path d="M13.8488 22.8048C13.8488 22.8048 12.1863 24.0739 14.7253 24.3447C18.0087 24.694 20.6017 24.7226 25.0885 23.8316C25.0885 23.8316 25.709 24.4804 26.6849 24.8352C17.5043 27.6036 7.27876 25.0536 13.8488 22.8048Z" fill="#5382A1"/>
<path d="M21.6709 15.3759C23.5418 17.5973 21.1793 19.5963 21.1793 19.5963C21.1793 19.5963 25.93 17.0672 23.7482 13.9002C21.7105 10.9468 20.1479 9.47934 28.6074 4.4198C28.6074 4.4198 15.3287 7.83983 21.6709 15.3759Z" fill="#E76F00"/>
<path d="M31.7134 30.4234C31.7134 30.4234 32.8103 31.3554 30.5054 32.0765C26.1225 33.4457 12.2634 33.8592 8.41337 32.131C7.02939 31.5102 9.62474 30.6485 10.4411 30.4677C11.2926 30.2773 11.7791 30.3128 11.7791 30.3128C10.24 29.1947 1.83085 32.5083 7.50769 33.4573C22.9892 36.0464 35.7291 32.2914 31.7134 30.4234Z" fill="#5382A1"/>
<path d="M15.4894 18.2673C15.4894 18.2673 8.43981 19.994 12.993 20.621C14.9155 20.8865 18.7479 20.8264 22.3177 20.518C25.2352 20.2642 28.1647 19.7246 28.1647 19.7246C28.1647 19.7246 27.1359 20.1789 26.3917 20.703C19.2329 22.6446 5.40349 21.7413 9.3848 19.7553C12.7518 18.0769 15.4894 18.2673 15.4894 18.2673Z" fill="#5382A1"/>
<path d="M28.1356 25.5569C35.4129 21.6573 32.0482 17.9097 29.6996 18.4146C29.124 18.5381 28.8674 18.6452 28.8674 18.6452C28.8674 18.6452 29.081 18.3 29.4892 18.1505C34.1353 16.4661 37.7085 23.1187 27.9894 25.7535C27.9894 25.7536 28.102 25.6498 28.1356 25.5569Z" fill="#5382A1"/>
<path d="M23.7482 -3.75C23.7482 -3.75 27.7784 0.407588 19.9257 6.80078C13.6285 11.9292 18.4897 14.8533 19.923 18.1942C16.2473 14.7742 13.5498 11.7635 15.3595 8.96146C18.0157 4.84829 25.3743 2.85408 23.7482 -3.75Z" fill="#E76F00"/>
<path d="M16.2044 36.1243C23.1897 36.5854 33.9163 35.8685 34.1703 32.46C34.1703 32.46 33.682 33.7521 28.3974 34.7783C22.4354 35.9353 15.082 35.8002 10.7207 35.0587C10.7208 35.0586 11.6135 35.8207 16.2044 36.1243Z" fill="#5382A1"/>
</g>
<defs>
<clipPath id="clip0_44_935">
<rect width="40" height="40" fill="white"/>
</clipPath>
</defs>
</svg>
