<svg width="40" height="40" viewBox="0 0 40 40" fill="none" xmlns="http://www.w3.org/2000/svg">
<path d="M19.7052 2.2323C10.6654 2.2323 11.2299 6.1525 11.2299 6.1525L11.24 10.2138H19.8665V11.4332H7.81362C7.81362 11.4332 2.02905 10.7772 2.02905 19.8984C2.02905 29.0196 7.07795 28.6962 7.07795 28.6962H10.0912V24.4636C10.0912 24.4636 9.92874 19.4147 15.0594 19.4147H23.6154C23.6154 19.4147 28.4224 19.4924 28.4224 14.7689V6.95871C28.4224 6.95871 29.1522 2.2323 19.7052 2.2323ZM14.9486 4.96334C15.8069 4.96334 16.5005 5.65703 16.5005 6.51529C16.5005 7.37356 15.8069 8.06725 14.9486 8.06725C14.0903 8.06725 13.3966 7.37356 13.3966 6.51529C13.3966 5.65703 14.0903 4.96334 14.9486 4.96334Z" fill="url(#paint0_linear_44_872)"/>
<path d="M19.962 37.656C29.0018 37.656 28.4373 33.7358 28.4373 33.7358L28.4273 29.6745H19.8008V28.4551H31.8537C31.8537 28.4551 37.6382 29.1111 37.6382 19.9899C37.6382 10.8686 32.5893 11.1921 32.5893 11.1921H29.5761V15.4247C29.5761 15.4247 29.7385 20.4736 24.6078 20.4736H16.0519C16.0519 20.4736 11.2449 20.3959 11.2449 25.1194V32.9296C11.2449 32.9296 10.515 37.656 19.962 37.656ZM24.7187 34.9249C23.8604 34.9249 23.1667 34.2312 23.1667 33.373C23.1667 32.5147 23.8604 31.821 24.7187 31.821C25.577 31.821 26.2706 32.5147 26.2706 33.373C26.2706 34.2312 25.577 34.9249 24.7187 34.9249Z" fill="url(#paint1_linear_44_872)"/>
<defs>
<linearGradient id="paint0_linear_44_872" x1="5.45115" y1="5.41856" x2="23.0977" y2="22.8891" gradientUnits="userSpaceOnUse">
<stop stop-color="#387EB8"/>
<stop offset="1" stop-color="#366994"/>
</linearGradient>
<linearGradient id="paint1_linear_44_872" x1="16.2827" y1="16.637" x2="35.2332" y2="34.5515" gradientUnits="userSpaceOnUse">
<stop stop-color="#FFE052"/>
<stop offset="1" stop-color="#FFC331"/>
</linearGradient>
</defs>
</svg>
